<svg xmlns="http://www.w3.org/2000/svg" width="1062" height="553.087" viewBox="0 0 1062 553.087">
  <g id="Group_4268" data-name="Group 4268" transform="translate(-405 -324)">
    <g id="Group_4267" data-name="Group 4267" transform="translate(0 -0.105)">
      <circle id="Ellipse_1665" data-name="Ellipse 1665" cx="213.082" cy="213.082" r="213.082" transform="translate(470.836 324.105)" fill="#20262e" opacity="0.12"/>
      <path id="Path_9232" data-name="Path 9232" d="M423.223,113.006H32.886a1.516,1.516,0,0,1,0-3.031H423.223a1.516,1.516,0,0,1,0,3.031Z" transform="translate(399.941 306.388)" fill="#cacaca"/>
      <rect id="Rectangle_6183" data-name="Rectangle 6183" width="137.254" height="29.35" rx="14.675" transform="translate(567.558 470.471)" fill="#20262e" opacity="0.24"/>
      <path id="Path_9233" data-name="Path 9233" d="M125.357,244.445H372.674A14.675,14.675,0,0,1,387.35,259.12h0A14.675,14.675,0,0,1,372.674,273.8H125.357a14.675,14.675,0,0,1-14.675-14.675h0A14.675,14.675,0,0,1,125.357,244.445Z" transform="translate(387.17 284.726)" fill="#20262e" opacity="0.24"/>
      <path id="Path_9234" data-name="Path 9234" d="M125.357,314.418H372.674a14.675,14.675,0,0,1,14.675,14.675h0a14.675,14.675,0,0,1-14.675,14.675H125.357a14.675,14.675,0,0,1-14.675-14.675h0A14.675,14.675,0,0,1,125.357,314.418Z" transform="translate(387.17 273.454)" fill="#20262e" opacity="0.24"/>
      <path id="Path_9235" data-name="Path 9235" d="M80.175,644.541l-.582-.057a67.556,67.556,0,0,1-48.815-29.042,65.546,65.546,0,0,1-7.395-14.684l-.177-.495.523-.042c6.247-.5,12.665-1.563,15.516-2.067l-18.384-6.229-.114-.546a12.812,12.812,0,0,1,5.393-13.307,13.032,13.032,0,0,1,14.6-.247c2,1.279,4.1,2.545,6.12,3.77,6.957,4.208,14.151,8.56,19.545,14.514a40.834,40.834,0,0,1,9.756,33.771l4.012,14.661Z" transform="translate(401.703 231.36)" fill="#f2f2f2"/>
      <path id="Path_9236" data-name="Path 9236" d="M171.3,640.149h9.06l4.311-34.95H171.3Z" transform="translate(377.405 226.61)" fill="#a0616a"/>
      <path id="Path_9237" data-name="Path 9237" d="M170.919,655.236h27.864v-.352a10.846,10.846,0,0,0-10.845-10.845h0l-5.09-3.861-9.5,3.862h-2.432v11.2Z" transform="translate(377.466 220.976)" fill="#20262e"/>
      <path id="Path_9238" data-name="Path 9238" d="M84.741,611.576l7.247,5.437,24.423-25.369-10.7-8.025Z" transform="translate(391.348 230.086)" fill="#a0616a"/>
      <path id="Path_9239" data-name="Path 9239" d="M77.674,624.01l22.289,16.721.211-.282a10.846,10.846,0,0,0-2.167-15.184h0l-1.754-6.143-9.914-2.61-1.946-1.46-6.72,8.958Z" transform="translate(392.487 225.023)" fill="#20262e"/>
      <path id="Path_9240" data-name="Path 9240" d="M116.7,445.961s.5,13.644,1.131,24.586c.1,1.795-4.1,3.744-3.992,5.7.072,1.3.862,2.554.936,3.9.077,1.425-1.014,2.687-.936,4.161.076,1.44,1.321,3.092,1.4,4.566.808,15.863,3.737,34.853.8,40.162-1.445,2.616-19.87,38.862-19.87,38.862s10.265,15.4,13.2,10.265c3.874-6.779,33.729-38.5,33.729-44.552s6.907-51.386,6.907-51.386l4.816,26.83,2.208,5.316-.694,3.121,1.427,4.212.077,4.168,1.389,7.74s-4.179,60.3-1.826,61.981,13.792,4.715,15.141,1.686,10.076-62.934,10.076-62.934,1.408-27.452,2.933-52.969c.088-1.481,1.129-3.27,1.21-4.729.1-1.694-.565-3.893-.477-5.536.1-1.884.931-3.212,1.012-5.015.623-13.939-2.875-30.913-3.99-32.585-3.366-5.045-6.394-9.078-6.394-9.078s-45.331-14.894-57.444.24l-2.77,21.288Z" transform="translate(389.507 256.786)" fill="#20262e"/>
      <path id="Path_9241" data-name="Path 9241" d="M165.977,283.414l-17.97-3.594L139.621,291.2h0c-15.648,15.386-15.883,28.965-13.09,50.732v30.549l-2.022,20.479s-7.157,14.97.225,18.456,55.87,3.188,60.5,1.8.617-3.1-.6-9.584c-2.284-12.18-.756-6.3-.6-10.183,2.253-55.631-2.995-78.469-3.528-84.473L171.368,292.4l-5.391-8.985Z" transform="translate(385.444 279.027)" fill="#3264c7"/>
      <path id="Path_9242" data-name="Path 9242" d="M277.9,335.506A7.265,7.265,0,0,1,267,337.844l-38.808,24.641.112-13.416,37.7-21.877a7.3,7.3,0,0,1,11.889,8.313Z" transform="translate(368.239 271.789)" fill="#a0616a"/>
      <path id="Path_9243" data-name="Path 9243" d="M154.3,302.522l-4.418-.468a11.691,11.691,0,0,0-10.553,4.606,11.392,11.392,0,0,0-1.992,4.188l0,.012a11.68,11.68,0,0,0,4.411,12.148l15.26,11.251c10.709,14.47,30.835,24.07,54.443,31.87l36.7-22.79-12.979-15.72L210,341.108l-37.414-28.962-.022-.017-14.24-9.174-4.02-.432Z" transform="translate(382.929 275.456)" fill="#3264c7"/>
      <circle id="Ellipse_1666" data-name="Ellipse 1666" cx="20.956" cy="20.956" r="20.956" transform="translate(524.393 511.705)" fill="#a0616a"/>
      <path id="Path_9244" data-name="Path 9244" d="M167.733,273.59l-.507.014c-.072.188-.15.374-.241.557Z" transform="translate(378.099 280.031)" fill="#2f2e41"/>
      <path id="Path_9245" data-name="Path 9245" d="M174.732,249.3a3.709,3.709,0,0,0,.15.608A2.859,2.859,0,0,0,174.732,249.3Z" transform="translate(376.851 283.944)" fill="#2f2e41"/>
      <path id="Path_9246" data-name="Path 9246" d="M182.924,223.777c-.863,2.678-1.632-.719-4.47-.108-3.413.735-7.386.483-10.181-1.61a15.773,15.773,0,0,0-14.449-2.2c-4.783,1.692-12.8,2.885-14.043,7.8-.433,1.71-.605,3.565-1.655,4.982-.918,1.239-2.367,1.945-3.579,2.9-4.092,3.219-.964,12.365.972,17.2s6.379,8.353,11.263,10.156c4.725,1.745,9.854,2.052,14.9,1.915.877-2.274.5-4.9-.225-7.258-.783-2.552-1.943-5.015-2.27-7.664s.391-5.659,2.613-7.139c2.042-1.361,5.365-.532,6.141,1.668-.453-2.75,2.333-5.412,5.205-5.88,3.084-.5,6.168.611,9.244,1.165s1.984-12.393.539-15.926Z" transform="translate(383.648 288.824)" fill="#20262e"/>
      <circle id="Ellipse_1667" data-name="Ellipse 1667" cx="42.885" cy="42.885" r="42.885" transform="translate(594.757 602.991) rotate(-85.269)" fill="#f62343"/>
      <path id="Path_9247" data-name="Path 9247" d="M288.93,264.148l-11.265,11.265L266.4,264.148a4.669,4.669,0,0,0-6.6,6.6l11.265,11.265L259.8,293.282a4.669,4.669,0,0,0,6.6,6.6l11.265-11.265,11.265,11.265a4.669,4.669,0,0,0,6.6-6.6l-11.265-11.265,11.265-11.265a4.669,4.669,0,1,0-6.6-6.6Z" transform="translate(363.368 281.772)" fill="#fff"/>
      <path id="Path_9248" data-name="Path 9248" d="M256.5,241.775a7.265,7.265,0,0,1-5.853,9.479l-9.086,45.063-9.6-9.369,10.312-42.35a7.3,7.3,0,0,1,14.23-2.824Z" transform="translate(367.632 285.969)" fill="#a0616a"/>
      <path id="Path_9249" data-name="Path 9249" d="M144.679,304.356l-3.4,2.864a11.691,11.691,0,0,0-3.982,10.8,11.393,11.393,0,0,0,1.642,4.337l.007.01a11.68,11.68,0,0,0,11.82,5.227l18.683-3.223c17.856,2.29,38.717-5.587,60.689-17.223l8.959-42.258-20.329-1.517-7.691,27.5-46.8,6.947-.027,0-16.479,3.924-3.095,2.6Z" transform="translate(382.906 281.676)" fill="#3264c7"/>
      <path id="Path_9250" data-name="Path 9250" d="M228.968,658.606,1,658.864a1,1,0,0,1,0-2l227.972-.258a1,1,0,0,1,0,2Z" transform="translate(405 218.328)" fill="#cacaca"/>
      <g id="Group_4266" data-name="Group 4266" transform="translate(445.536 385.691)">
        <ellipse id="Ellipse_1668" data-name="Ellipse 1668" cx="7.094" cy="7.252" rx="7.094" ry="7.252" fill="#20262e"/>
        <ellipse id="Ellipse_1669" data-name="Ellipse 1669" cx="7.094" cy="7.252" rx="7.094" ry="7.252" transform="translate(24.508)" fill="#20262e"/>
        <ellipse id="Ellipse_1670" data-name="Ellipse 1670" cx="7.094" cy="7.252" rx="7.094" ry="7.252" transform="translate(49.015)" fill="#20262e"/>
        <path id="Path_9251" data-name="Path 9251" d="M147.436,86.69a.836.836,0,0,1-.6-.252l-4.787-4.893a.839.839,0,0,1,0-1.173l4.787-4.893a.839.839,0,1,1,1.2,1.173l-4.213,4.306,4.213,4.307a.839.839,0,0,1-.6,1.425Z" transform="translate(-63.381 -73.705)" fill="#20262e"/>
        <path id="Path_9252" data-name="Path 9252" d="M157.943,86.69a.839.839,0,0,1-.6-1.425l4.213-4.307-4.213-4.306a.839.839,0,0,1,1.2-1.173l4.786,4.893a.838.838,0,0,1,0,1.173l-4.786,4.893a.836.836,0,0,1-.6.252Z" transform="translate(-65.845 -73.705)" fill="#20262e"/>
        <path id="Path_9253" data-name="Path 9253" d="M454.552,74.414h-8.9a1.837,1.837,0,0,0-1.837,1.837v8.909A1.837,1.837,0,0,0,445.651,87h8.9a1.844,1.844,0,0,0,1.846-1.837V76.251A1.844,1.844,0,0,0,454.552,74.414Z" transform="translate(-112.032 -73.574)" fill="#20262e"/>
        <path id="Path_9254" data-name="Path 9254" d="M428.552,74.414h-8.9a1.837,1.837,0,0,0-1.837,1.837v8.909A1.837,1.837,0,0,0,419.651,87h8.9a1.844,1.844,0,0,0,1.846-1.837V76.251A1.844,1.844,0,0,0,428.552,74.414Z" transform="translate(-107.844 -73.574)" fill="#20262e"/>
        <path id="Path_9255" data-name="Path 9255" d="M479.052,74.914h-8.9a1.837,1.837,0,0,0-1.837,1.837v8.909a1.837,1.837,0,0,0,1.837,1.837h8.9a1.844,1.844,0,0,0,1.846-1.837V76.751A1.844,1.844,0,0,0,479.052,74.914Z" transform="translate(-115.979 -73.655)" fill="#20262e"/>
        <path id="Path_9256" data-name="Path 9256" d="M307.1,78.954H235.952a2.24,2.24,0,1,0,0,4.48H307.1a2.24,2.24,0,0,0,0-4.48Z" transform="translate(-78.186 -74.306)" fill="#20262e"/>
      </g>
    </g>
    <text id="صحفه_ی_درخواستی_شما_موجود_نمی_باشد" data-name="صحفه ی درخواستی شما موجود نمی باشد" transform="translate(1467 515)" fill="#20262e" font-size="33" font-family="IRANSansWebFaNum-Medium, 'IRANSansWeb\(FaNum\)'" font-weight="500"><tspan x="-540.353" y="0">صحفه ی درخواستی شما موجود نمی باشد</tspan></text>
    <rect id="Rectangle_6184" data-name="Rectangle 6184" width="540" height="63" rx="4" transform="translate(927 585)" fill="#3264c7"/>
    <text id="برگشت_به_صحفه_ی_اصلی" data-name="برگشت به صحفه ی اصلی" transform="translate(1288 621)" fill="#fff" font-size="18" font-family="IRANSansWebFaNum-Medium, 'IRANSansWeb\(FaNum\)'" font-weight="500"><tspan x="-180.657" y="0">برگشت به صحفه ی اصلی</tspan></text>
  </g>
</svg>
