<svg xmlns="http://www.w3.org/2000/svg" width="14.938" height="13.071" viewBox="0 0 14.938 13.071">
  <path id="solid_bars" data-name="solid bars" d="M.534,62.4H14.4a.533.533,0,0,0,.534-.534V60.534A.533.533,0,0,0,14.4,60H.534A.533.533,0,0,0,0,60.534v1.334A.533.533,0,0,0,.534,62.4Zm0,5.335H14.4a.533.533,0,0,0,.534-.534V65.869a.533.533,0,0,0-.534-.534H.534A.533.533,0,0,0,0,65.869V67.2A.533.533,0,0,0,.534,67.736Zm0,5.335H14.4a.533.533,0,0,0,.534-.534V71.2a.533.533,0,0,0-.534-.534H.534A.533.533,0,0,0,0,71.2v1.334A.533.533,0,0,0,.534,73.071Z" transform="translate(0 -60)" fill="#20262e"/>
</svg>
