<svg xmlns="http://www.w3.org/2000/svg" width="16" height="15.539" viewBox="0 0 16 15.539">
  <path id="solid_book" data-name="solid book" d="M16,10.926V.728A.8.8,0,0,0,15.143,0H3.429A3.2,3.2,0,0,0,0,2.914v9.712a3.2,3.2,0,0,0,3.429,2.914H15.143A.8.8,0,0,0,16,14.811v-.486a.7.7,0,0,0-.318-.568,5.767,5.767,0,0,1,0-2.267A.689.689,0,0,0,16,10.926ZM4.571,4.067a.2.2,0,0,1,.214-.182h7.571a.2.2,0,0,1,.214.182v.607a.2.2,0,0,1-.214.182H4.786a.2.2,0,0,1-.214-.182Zm0,1.942a.2.2,0,0,1,.214-.182h7.571a.2.2,0,0,1,.214.182v.607a.2.2,0,0,1-.214.182H4.786a.2.2,0,0,1-.214-.182Zm9.05,7.588H3.429a1.066,1.066,0,0,1-1.143-.971,1.071,1.071,0,0,1,1.143-.971H13.621A9.293,9.293,0,0,0,13.621,13.6Z" fill="rgba(50,100,199,0.4)"/>
</svg>
