<svg xmlns="http://www.w3.org/2000/svg" width="16" height="12.798" viewBox="0 0 16 12.798">
  <path id="solid_tshirt" data-name="solid tshirt" d="M15.719,2.412,10.852,0A3.628,3.628,0,0,1,7.94,1.18,3.628,3.628,0,0,1,5.028,0L.161,2.412a.4.4,0,0,0-.18.537l1.43,2.862a.4.4,0,0,0,.537.18L3.363,5.3a.4.4,0,0,1,.575.36V12a.8.8,0,0,0,.8.8h6.4a.8.8,0,0,0,.8-.8V5.657a.4.4,0,0,1,.575-.36l1.415.692a.4.4,0,0,0,.537-.18L15.9,2.95A.4.4,0,0,0,15.719,2.412Z" transform="translate(0.06)" fill="rgba(50,100,199,0.4)"/>
</svg>
